<svg width="2979" height="975" viewBox="0 0 2979 975" fill="none" xmlns="http://www.w3.org/2000/svg">
<path d="M135.85 234V715H44.8501V234H135.85ZM502.008 527.15C502.008 540.15 501.142 551.85 499.408 562.25H236.158C238.325 588.25 247.425 608.617 263.458 623.35C279.492 638.083 299.208 645.45 322.608 645.45C356.408 645.45 380.458 630.933 394.758 601.9H492.908C482.508 636.567 462.575 665.167 433.108 687.7C403.642 709.8 367.458 720.85 324.558 720.85C289.892 720.85 258.692 713.267 230.958 698.1C203.658 682.5 182.208 660.617 166.608 632.45C151.442 604.283 143.858 571.783 143.858 534.95C143.858 497.683 151.442 464.967 166.608 436.8C181.775 408.633 203.008 386.967 230.308 371.8C257.608 356.633 289.025 349.05 324.558 349.05C358.792 349.05 389.342 356.417 416.208 371.15C443.508 385.883 464.525 406.9 479.258 434.2C494.425 461.067 502.008 492.05 502.008 527.15ZM407.758 501.15C407.325 477.75 398.875 459.117 382.408 445.25C365.942 430.95 345.792 423.8 321.958 423.8C299.425 423.8 280.358 430.733 264.758 444.6C249.592 458.033 240.275 476.883 236.808 501.15H407.758ZM669.83 720.85C635.163 720.85 603.963 713.267 576.23 698.1C548.497 682.5 526.613 660.617 510.58 632.45C494.98 604.283 487.18 571.783 487.18 534.95C487.18 498.117 495.197 465.617 511.23 437.45C527.697 409.283 550.013 387.617 578.18 372.45C606.347 356.85 637.763 349.05 672.43 349.05C707.097 349.05 738.513 356.85 766.68 372.45C794.847 387.617 816.947 409.283 832.98 437.45C849.447 465.617 857.68 498.117 857.68 534.95C857.68 571.783 849.23 604.283 832.33 632.45C815.863 660.617 793.33 682.5 764.73 698.1C736.563 713.267 704.93 720.85 669.83 720.85ZM669.83 641.55C686.297 641.55 701.68 637.65 715.98 629.85C730.713 621.617 742.413 609.483 751.08 593.45C759.747 577.417 764.08 557.917 764.08 534.95C764.08 500.717 754.98 474.5 736.78 456.3C719.013 437.667 697.13 428.35 671.13 428.35C645.13 428.35 623.247 437.667 605.48 456.3C588.147 474.5 579.48 500.717 579.48 534.95C579.48 569.183 587.93 595.617 604.83 614.25C622.163 632.45 643.83 641.55 669.83 641.55ZM1246.08 407.55C1257.78 390.217 1273.81 376.133 1294.18 365.3C1314.98 354.467 1338.6 349.05 1365.03 349.05C1395.8 349.05 1423.53 356.633 1448.23 371.8C1473.36 386.967 1493.08 408.633 1507.38 436.8C1522.11 464.533 1529.48 496.817 1529.48 533.65C1529.48 570.483 1522.11 603.2 1507.38 631.8C1493.08 659.967 1473.36 681.85 1448.23 697.45C1423.53 713.05 1395.8 720.85 1365.03 720.85C1338.16 720.85 1314.55 715.65 1294.18 705.25C1274.25 694.417 1258.21 680.55 1246.08 663.65V715H1155.08V234H1246.08V407.55ZM1436.53 533.65C1436.53 511.983 1431.98 493.35 1422.88 477.75C1414.21 461.717 1402.51 449.583 1387.78 441.35C1373.48 433.117 1357.88 429 1340.98 429C1324.51 429 1308.91 433.333 1294.18 442C1279.88 450.233 1268.18 462.367 1259.08 478.4C1250.41 494.433 1246.08 513.283 1246.08 534.95C1246.08 556.617 1250.41 575.467 1259.08 591.5C1268.18 607.533 1279.88 619.883 1294.18 628.55C1308.91 636.783 1324.51 640.9 1340.98 640.9C1357.88 640.9 1373.48 636.567 1387.78 627.9C1402.51 619.233 1414.21 606.883 1422.88 590.85C1431.98 574.817 1436.53 555.75 1436.53 533.65ZM1871.86 527.15C1871.86 540.15 1870.99 551.85 1869.26 562.25H1606.01C1608.17 588.25 1617.27 608.617 1633.31 623.35C1649.34 638.083 1669.06 645.45 1692.46 645.45C1726.26 645.45 1750.31 630.933 1764.61 601.9H1862.76C1852.36 636.567 1832.42 665.167 1802.96 687.7C1773.49 709.8 1737.31 720.85 1694.41 720.85C1659.74 720.85 1628.54 713.267 1600.81 698.1C1573.51 682.5 1552.06 660.617 1536.46 632.45C1521.29 604.283 1513.71 571.783 1513.71 534.95C1513.71 497.683 1521.29 464.967 1536.46 436.8C1551.62 408.633 1572.86 386.967 1600.16 371.8C1627.46 356.633 1658.87 349.05 1694.41 349.05C1728.64 349.05 1759.19 356.417 1786.06 371.15C1813.36 385.883 1834.37 406.9 1849.11 434.2C1864.27 461.067 1871.86 492.05 1871.86 527.15ZM1777.61 501.15C1777.17 477.75 1768.72 459.117 1752.26 445.25C1735.79 430.95 1715.64 423.8 1691.81 423.8C1669.27 423.8 1650.21 430.733 1634.61 444.6C1619.44 458.033 1610.12 476.883 1606.66 501.15H1777.61ZM2017.58 720.85C1988.11 720.85 1961.68 715.65 1938.28 705.25C1914.88 694.417 1896.25 679.9 1882.38 661.7C1868.95 643.5 1861.58 623.35 1860.28 601.25H1951.93C1953.66 615.117 1960.38 626.6 1972.08 635.7C1984.21 644.8 1999.16 649.35 2016.93 649.35C2034.26 649.35 2047.7 645.883 2057.23 638.95C2067.2 632.017 2072.18 623.133 2072.18 612.3C2072.18 600.6 2066.11 591.933 2053.98 586.3C2042.28 580.233 2023.43 573.733 1997.43 566.8C1970.56 560.3 1948.46 553.583 1931.13 546.65C1914.23 539.717 1899.5 529.1 1886.93 514.8C1874.8 500.5 1868.73 481.217 1868.73 456.95C1868.73 437.017 1874.36 418.817 1885.63 402.35C1897.33 385.883 1913.8 372.883 1935.03 363.35C1956.7 353.817 1982.05 349.05 2011.08 349.05C2053.98 349.05 2088.21 359.883 2113.78 381.55C2139.35 402.783 2153.43 431.6 2156.03 468H2068.93C2067.63 453.7 2061.56 442.433 2050.73 434.2C2040.33 425.533 2026.25 421.2 2008.48 421.2C1992.01 421.2 1979.23 424.233 1970.13 430.3C1961.46 436.367 1957.13 444.817 1957.13 455.65C1957.13 467.783 1963.2 477.1 1975.33 483.6C1987.46 489.667 2006.31 495.95 2031.88 502.45C2057.88 508.95 2079.33 515.667 2096.23 522.6C2113.13 529.533 2127.65 540.367 2139.78 555.1C2152.35 569.4 2158.85 588.467 2159.28 612.3C2159.28 633.1 2153.43 651.733 2141.73 668.2C2130.46 684.667 2114 697.667 2092.33 707.2C2071.1 716.3 2046.18 720.85 2017.58 720.85ZM2313.28 720.85C2283.81 720.85 2257.38 715.65 2233.98 705.25C2210.58 694.417 2191.95 679.9 2178.08 661.7C2164.65 643.5 2157.28 623.35 2155.98 601.25H2247.63C2249.36 615.117 2256.08 626.6 2267.78 635.7C2279.91 644.8 2294.86 649.35 2312.63 649.35C2329.96 649.35 2343.4 645.883 2352.93 638.95C2362.9 632.017 2367.88 623.133 2367.88 612.3C2367.88 600.6 2361.81 591.933 2349.68 586.3C2337.98 580.233 2319.13 573.733 2293.13 566.8C2266.26 560.3 2244.16 553.583 2226.83 546.65C2209.93 539.717 2195.2 529.1 2182.63 514.8C2170.5 500.5 2164.43 481.217 2164.43 456.95C2164.43 437.017 2170.06 418.817 2181.33 402.35C2193.03 385.883 2209.5 372.883 2230.73 363.35C2252.4 353.817 2277.75 349.05 2306.78 349.05C2349.68 349.05 2383.91 359.883 2409.48 381.55C2435.05 402.783 2449.13 431.6 2451.73 468H2364.63C2363.33 453.7 2357.26 442.433 2346.43 434.2C2336.03 425.533 2321.95 421.2 2304.18 421.2C2287.71 421.2 2274.93 424.233 2265.83 430.3C2257.16 436.367 2252.83 444.817 2252.83 455.65C2252.83 467.783 2258.9 477.1 2271.03 483.6C2283.16 489.667 2302.01 495.95 2327.58 502.45C2353.58 508.95 2375.03 515.667 2391.93 522.6C2408.83 529.533 2423.35 540.367 2435.48 555.1C2448.05 569.4 2454.55 588.467 2454.98 612.3C2454.98 633.1 2449.13 651.733 2437.43 668.2C2426.16 684.667 2409.7 697.667 2388.03 707.2C2366.8 716.3 2341.88 720.85 2313.28 720.85ZM2517.33 312C2501.29 312 2487.86 307.017 2477.03 297.05C2466.63 286.65 2461.43 273.867 2461.43 258.7C2461.43 243.533 2466.63 230.967 2477.03 221C2487.86 210.6 2501.29 205.4 2517.33 205.4C2533.36 205.4 2546.58 210.6 2556.98 221C2567.81 230.967 2573.23 243.533 2573.23 258.7C2573.23 273.867 2567.81 286.65 2556.98 297.05C2546.58 307.017 2533.36 312 2517.33 312ZM2562.18 354.9V715H2471.18V354.9H2562.18ZM2793.14 349.7C2836.04 349.7 2870.7 363.35 2897.14 390.65C2923.57 417.517 2936.79 455.217 2936.79 503.75V715H2845.79V516.1C2845.79 487.5 2838.64 465.617 2824.34 450.45C2810.04 434.85 2790.54 427.05 2765.84 427.05C2740.7 427.05 2720.77 434.85 2706.04 450.45C2691.74 465.617 2684.59 487.5 2684.59 516.1V715H2593.59V354.9H2684.59V399.75C2696.72 384.15 2712.1 372.017 2730.74 363.35C2749.8 354.25 2770.6 349.7 2793.14 349.7Z" fill="white"/>
<path d="M907 388H1007C1062.23 388 1107 432.771 1107 488V588H1007C951.771 588 907 543.228 907 488V388Z" fill="white"/>
</svg>
